<svg width="57" height="90" viewBox="0 0 57 90" fill="none" xmlns="http://www.w3.org/2000/svg">
<g id="CoffeeShot logo">
<path id="Vector" d="M21.0351 0.0538015C22.5118 -0.14531 24.0199 0.235515 25.3966 0.747793C26.0399 0.9875 32.6998 4.55605 33.1332 4.90787C36.0905 7.30301 35.1786 10.0558 34.4687 13.2957C34.7981 14.2449 46.3314 12.9555 50.8556 23.3479C56.8958 22.4992 59.1452 30.2879 53.5992 32.8454C51.5518 48.0165 50.4359 63.3095 48.2533 78.4633C47.1197 82.981 41.9993 87.4234 37.3515 87.9607C36.4984 88.0593 21.137 88.0593 20.1898 87.9607C14.6125 87.3749 9.50775 82.5731 8.72527 77.0772C6.94329 62.4718 5.16129 47.867 3.3793 33.2629C3.10475 32.4819 -0.133035 31.2331 0.00424261 27.9933C0.114064 25.399 2.99296 22.768 5.70125 23.4871C9.98822 12.5688 22.1118 13.9742 22.9315 13.2957C23.0256 13.2184 23.3178 11.2543 23.4944 10.9392C23.3532 10.4096 18.4818 9.45072 17.3051 7.19476C15.8284 4.36274 17.7973 0.490688 21.0331 0.0538015H21.0351Z" fill="white"/>
<path id="Vector_2" d="M9.57066 26.402C21.4609 26.1938 33.6844 26.2292 45.5804 26.402C46.0962 26.4098 46.6119 26.3902 47.1277 26.402C47.6376 26.4137 48.1691 26.3843 48.6751 26.402C49.4379 26.4295 50.3577 26.3273 51.0656 26.402C54.1446 28.9831 51.8854 29.5881 51.4873 30.2068C45.3705 29.8159 7.7331 30.7175 5.49156 30.2068C4.71496 30.03 4.14821 29.038 4.22469 28.3054C4.32078 27.4019 5.46803 27.0188 5.49156 26.4039C6.30149 26.3077 7.33696 26.2861 8.16454 26.2625C8.23515 26.2605 8.37831 26.4235 9.57066 26.4039V26.402Z" fill="#5B3020"/>
<path id="Vector_3" d="M51.4869 30.2068C51.181 30.6822 50.8241 31.1418 50.6436 31.6859V34.6442L50.0808 34.8563C50.1514 33.6359 50.222 32.4148 50.2926 31.1929H6.82867L6.75807 34.7149C6.71688 34.7111 6.55607 34.8327 5.91479 34.7149C5.86184 34.5539 5.90107 32.4108 5.77359 31.3344C5.76576 31.2715 6.14817 31.3383 5.49316 30.2068C7.73666 30.7175 45.3741 29.816 51.4889 30.2068H51.4869Z" fill="#42261D"/>
<path id="Vector_4" d="M5.49161 26.4019C5.47004 27.0167 4.32083 27.3998 4.22473 28.3033C4.14825 29.0359 4.71501 30.0279 5.49161 30.2048C6.14661 31.3362 5.76616 31.2695 5.77205 31.3322C5.45238 30.9001 4.6248 30.9826 4.01294 30.4877C2.86373 29.5565 2.48328 26.7594 5.48965 26.4019H5.49161Z" fill="#352626"/>
<path id="Vector_5" d="M50.0806 34.8562C38.5591 34.3535 16.8006 35.5851 6.75586 34.7148L6.82645 31.1929H50.2903C50.2198 32.4134 50.1491 33.6346 50.0786 34.8562H50.0806Z" fill="#5B3020"/>
<path id="Vector_6" d="M48.6746 26.4021C48.1685 26.3843 47.6372 26.4138 47.1273 26.4021C46.0584 23.0765 45.0917 22.006 42.2049 20.3441C36.8962 17.2896 29.5931 17.3014 23.5666 17.6668C17.5793 18.0303 11.0802 19.6802 9.57018 26.4021C8.37783 26.4236 8.23467 26.2587 8.16406 26.2606C11.0626 14.467 24.9217 17.2032 25.6062 16.1876C25.9343 14.0269 26.2624 11.8669 26.5906 9.70743C26.4807 9.2694 21.2192 7.32866 20.6132 6.81991C18.8874 5.37025 20.0641 2.53969 22.7233 2.87559C23.2724 2.94434 30.4736 6.49973 31.0227 6.96135C33.6016 9.13386 30.8481 13.5732 31.4443 16.4018C39.4279 16.7415 45.8781 18.1068 48.6746 26.406V26.4021Z" fill="#2F2B2F"/>
<path id="Vector_7" d="M21.7378 4.28178C22.7752 3.93606 29.3548 7.67414 30.6706 8.57968C31.1276 9.44004 29.9137 14.9813 29.7567 16.3995L27.0132 16.3288C27.3413 13.8866 27.6695 11.4443 27.9976 9.002C27.6995 7.85485 18.5804 5.33465 21.7378 4.28178Z" fill="#BCE2E6"/>
<path id="Vector_8" d="M42.2031 20.344C43.6543 22.1688 45.3624 23.9346 45.5782 26.4019C33.682 26.2291 21.4605 26.1937 9.56836 26.4019C11.0784 19.68 17.5756 18.0301 23.5648 17.6666C29.5912 17.3012 36.8943 17.2894 42.2031 20.344Z" fill="#C4A580"/>
<path id="Vector_9" d="M47.1275 26.4017C46.6118 26.3899 46.0959 26.4095 45.5802 26.4017C45.3644 23.9346 43.6544 22.1686 42.2051 20.3438C45.0938 22.0056 46.0587 23.0761 47.1275 26.4017Z" fill="#786656"/>
<path id="Vector_10" d="M5.91309 34.7147C6.55633 34.8326 6.71518 34.7109 6.75637 34.7147C16.7992 35.585 38.5576 34.3534 50.0811 34.8562L50.6439 34.644V31.6858C50.8263 31.1397 51.1832 30.6801 51.4872 30.2067C51.8853 29.588 54.1445 28.985 51.0656 26.4019C54.8975 26.8065 54.3955 30.5564 51.0656 31.1221C50.9713 32.3896 50.878 33.658 50.7851 34.9269C50.7184 35.1843 50.2458 34.8877 50.0811 35.7716L45.4392 78.4618C44.5194 82.2057 41.3482 85.602 37.4908 86.2817C36.3966 86.4741 21.6019 86.5724 20.3292 86.4232C15.8579 85.8947 12.2004 81.9111 11.6787 77.4757C10.0393 63.3818 8.36447 49.286 6.61517 35.2079C6.56614 35.0958 6.03076 35.0743 5.91113 34.7147H5.91309Z" fill="#2F2B2F"/>
<path id="Vector_11" d="M48.9554 35.2788C48.5063 36.7126 47.3944 35.9093 46.002 36.2648C46.0627 35.9054 46.0411 35.5007 46.1432 35.1374C46.5884 35.1492 48.8083 35.0195 48.9574 35.2788H48.9554Z" fill="#A3712C"/>
<path id="Vector_12" d="M13.2275 78.6722C14.4749 78.3127 15.779 78.6191 17.0262 78.6722C17.2126 78.68 17.4027 78.6644 17.5891 78.6722C20.0306 78.7685 37.457 78.8961 38.4767 78.6722C38.7356 78.6153 39.5102 78.0083 39.673 77.7568C40.7143 76.1344 43.1422 52.9222 43.7522 48.8738C44.3856 44.6681 45.2856 40.4606 46.0035 36.2648C47.3959 35.9093 48.5077 36.7128 48.9569 35.2788C47.4102 49.3916 45.8629 63.5046 44.3149 77.6174C43.5443 81.4753 40.0006 84.8382 36.0862 85.2958C35.3292 85.3843 21.7819 85.3843 21.0347 85.2958C17.542 84.8833 14.2552 82.041 13.2275 78.6742V78.6722Z" fill="#BA8432"/>
<path id="Vector_13" d="M45.088 60.3566C45.9313 60.3762 44.7644 61.4409 45.0173 61.9772C45.0566 62.0616 46.5863 62.7963 45.2292 63.1754C43.4151 63.6822 43.9309 60.3291 45.088 60.3566Z" fill="#352626"/>
<path id="Vector_14" d="M17.5874 78.672C17.4012 78.664 17.2109 78.6798 17.0247 78.672C15.0145 77.5562 17.0207 74.4054 18.9231 74.7276C21.1764 75.1067 18.6562 78.2653 17.5874 78.672Z" fill="#FAD293"/>
<path id="Vector_15" d="M16.8857 77.5463C17.5819 76.9157 18.6311 76.13 18.7134 75.1519C20.9805 75.3109 17.7113 79.1138 16.8857 77.5463Z" fill="#42261D"/>
<path id="Vector_16" d="M18.7133 75.1501C18.631 76.1303 17.5799 76.9139 16.8856 77.5445C16.3227 76.4799 17.5975 75.0715 18.7133 75.1501Z" fill="#995526"/>
<path id="Vector_17" d="M46.1434 35.1372C46.0414 35.4986 46.0649 35.9052 46.0022 36.2646C45.2845 40.4623 44.3862 44.6699 43.7509 48.8734C43.1409 52.9219 40.7131 76.1341 39.6717 77.7566C39.5109 78.0081 38.7343 78.6151 38.4754 78.672C37.4557 78.8959 20.0274 78.7683 17.5878 78.672C18.6586 78.2654 21.1766 75.1068 18.9233 74.7276C17.0209 74.4074 15.0129 77.5562 17.0249 78.672C15.7777 78.6189 14.4755 78.3125 13.2263 78.672C11.4593 64.1872 9.38837 49.7339 8.02148 35.2079C20.7118 35.3394 33.457 34.7895 46.1414 35.1372H46.1434Z" fill="#E1A146"/>
<path id="Vector_18" d="M22.0198 48.5221C24.3516 48.1292 24.2397 52.2366 22.7239 52.6079C20.2333 53.2167 20.1508 48.8364 22.0198 48.5221Z" fill="#FAD293"/>
<path id="Vector_19" d="M22.9334 51.9027C21.6429 52.4822 22.2431 50.6926 22.3705 48.9444C23.704 48.8658 23.9531 51.054 22.9334 51.9027Z" fill="#5B3020"/>
<path id="Vector_20" d="M22.3708 48.9443C22.2433 50.6945 21.6433 52.4821 22.9336 51.9026C21.0922 53.4367 20.5175 49.0522 22.3708 48.9443Z" fill="#6A3A20"/>
<path id="Vector_21" d="M12.4536 40.914C15.5287 40.2011 14.5795 46.0015 11.8908 44.7189C10.5317 44.0706 11.273 41.189 12.4536 40.914Z" fill="#FAD293"/>
<path id="Vector_22" d="M11.6807 42.6037C12.3494 45.1573 13.2633 42.7314 12.5239 41.4762C14.2007 40.5745 14.4419 43.0516 13.6496 43.9414C12.8103 44.8843 11.4238 44.4502 11.6807 42.6037Z" fill="#42261D"/>
<path id="Vector_23" d="M12.5239 41.478C13.2633 42.7332 12.3494 45.1572 11.6807 42.6054C11.7689 41.9652 12.0141 41.7531 12.5239 41.478Z" fill="#A76232"/>
<path id="Vector_24" d="M31.5844 59.793C34.4183 59.2115 34.3143 64.8786 31.4433 63.5978C30.1606 63.0241 30.2411 60.0699 31.5844 59.793Z" fill="#FAD293"/>
<path id="Vector_25" d="M32.639 60.3568C31.8329 61.1936 33.4194 63.378 31.2328 62.6118C30.6268 61.4568 31.0131 59.6477 32.639 60.3568Z" fill="#6A3A20"/>
<path id="Vector_26" d="M31.2334 62.6119C33.42 63.3799 31.8354 61.1937 32.6394 60.3569C34.5535 61.1917 32.5198 65.0595 31.2334 62.6119Z" fill="#5B3020"/>
<path id="Vector_27" d="M36.6478 56.8351C39.9719 56.3439 38.7835 60.4277 35.9439 59.7933C34.3475 59.4378 34.8926 57.0943 36.6478 56.8351Z" fill="#FAD293"/>
<path id="Vector_28" d="M36.7182 57.2574C38.8578 56.945 38.8205 58.6108 37.491 59.2295C35.2494 60.2746 34.7689 57.713 36.5771 57.2574C34.8709 58.8957 38.2342 58.4459 36.7182 57.2574Z" fill="#42261D"/>
<path id="Vector_29" d="M36.5764 57.2571C36.6196 57.2453 36.6726 57.2629 36.7176 57.2571C38.2337 58.4454 34.8704 58.8952 36.5764 57.2571Z" fill="#DB7644"/>
<path id="Vector_30" d="M35.9449 40.3501C38.2256 39.6253 39.165 44.3652 36.5078 43.4498C35.2135 43.004 34.9586 40.6645 35.9449 40.3501Z" fill="#FAD293"/>
<path id="Vector_31" d="M36.0844 40.7727C37.7258 40.0538 38.5239 43.8312 36.6472 43.0278C35.8176 42.6722 35.4529 41.0497 36.0844 40.7727Z" fill="#42261D"/>
<path id="Vector_32" d="M33.4113 47.2528C35.9548 46.4493 36.0098 51.8865 33.5525 50.7747C32.3249 50.2188 32.4347 47.5612 33.4113 47.2528Z" fill="#FAD293"/>
<path id="Vector_33" d="M33.8356 47.5357C35.2142 47.3648 35.4359 50.2012 34.5396 50.494C32.9099 51.0263 32.5668 47.6928 33.8356 47.5357Z" fill="#5B3020"/>
<path id="Vector_34" d="M42.2742 43.0276C44.6492 42.7722 44.6845 46.1233 42.1332 45.5634C40.7544 45.261 40.7388 43.1926 42.2742 43.0276Z" fill="#FAD293"/>
<path id="Vector_35" d="M42.1329 43.4499C43.6272 43.0472 44.449 44.5931 43.2587 45.1412C41.8074 45.8071 40.7935 43.8133 42.1329 43.4499Z" fill="#42261D"/>
<path id="Vector_36" d="M15.4089 56.9761C18.6644 56.4358 16.1523 61.9045 14.0029 61.2032C12.4438 60.6944 13.8264 57.2392 15.4089 56.9761Z" fill="#FAD293"/>
<path id="Vector_37" d="M15.4092 57.3986C18.1195 56.7936 15.8682 61.1445 14.4247 60.7792C13.2814 60.4905 14.1717 57.6737 15.4092 57.3986Z" fill="#42261D"/>
<path id="Vector_38" d="M15.4088 57.6793C15.9285 57.7971 15.0205 59.3234 14.9166 59.4413C13.2301 61.3506 14.5323 57.4809 15.4088 57.6793Z" fill="#995526"/>
<path id="Vector_39" d="M35.663 74.586C38.4243 74.0891 39.0145 79.0274 36.0847 77.9667C34.7963 77.5011 34.0471 74.8749 35.663 74.586Z" fill="#FAD293"/>
<path id="Vector_40" d="M35.6631 75.0084C37.1849 74.5075 38.3988 76.8567 37.3516 77.5443C36.0612 78.391 34.21 75.4857 35.6631 75.0084Z" fill="#5B3020"/>
<path id="Vector_41" d="M36.3671 75.2913C36.8771 75.1989 37.3281 76.1752 36.7888 76.4187C36.1672 76.6977 35.6396 75.4248 36.3671 75.2913Z" fill="#995526"/>
<path id="Vector_42" d="M33.8356 67.8234C37.0007 67.0298 37.5871 71.0567 34.5396 70.9231C32.5372 70.8346 32.1451 68.2477 33.8356 67.8234Z" fill="#FAD293"/>
<path id="Vector_43" d="M34.1154 68.1061C36.2804 67.6976 37.1729 70.2903 34.9587 70.5006C32.8858 70.697 32.5564 68.3987 34.1154 68.1061Z" fill="#42261D"/>
<path id="Vector_44" d="M34.3977 68.2473C35.5253 68.0823 35.5117 69.6851 34.1173 69.2335C33.5622 69.0547 33.9487 68.3141 34.3977 68.2473Z" fill="#CD7A3C"/>
<path id="Vector_45" d="M21.0355 63.7373C23.4672 63.3012 24.0869 65.7154 22.4416 66.5561C19.545 68.0352 18.5233 64.1891 21.0355 63.7373Z" fill="#FAD293"/>
<path id="Vector_46" d="M21.3156 64.02C22.9609 63.8059 23.6081 65.4108 22.4412 66.1337C20.0644 67.6048 18.974 64.3246 21.3156 64.02Z" fill="#5B3020"/>
<path id="Vector_47" d="M21.3161 64.4428C22.5066 64.1795 22.0712 65.3876 21.4573 65.4288C20.8317 65.4701 20.514 64.6195 21.3161 64.4428Z" fill="#CD7A3C"/>
<path id="Vector_48" d="M29.7564 44.1532C32.7608 43.6129 31.492 47.7163 29.0524 47.1114C27.5934 46.7499 28.415 44.3947 29.7564 44.1532Z" fill="#FAD293"/>
<path id="Vector_49" d="M30.1781 44.4363C32.2922 44.3145 30.8684 47.2727 29.1937 46.6912C28.1504 46.3299 29.0741 44.501 30.1781 44.4363Z" fill="#42261D"/>
<path id="Vector_50" d="M29.6149 44.8586C30.158 44.7859 29.8522 45.7033 29.3345 45.5637C28.8952 45.4459 29.5482 44.8684 29.6149 44.8586Z" fill="#CC5C45"/>
</g>
</svg>
